HIERARCHY
ROOT Hips
{
	OFFSET -0.001795 -0.223333 0.028219
	CHANNELS 6 Xposition Yposition Zposition Zrotation Yrotation Xrotation 
	JOINT LeftUpLeg
	{
		OFFSET 0.069520 -0.091406 -0.006815
		CHANNELS 3 Zrotation Yrotation Xrotation
		JOINT LeftLeg
		{
			OFFSET 0.034277 -0.375199 -0.004496
			CHANNELS 3 Zrotation Yrotation Xrotation
			JOINT LeftFoot
			{
				OFFSET -0.013596 -0.397961 -0.043693
				CHANNELS 3 Zrotation Yrotation Xrotation
				JOINT LeftToe
				{
					OFFSET 0.026358 -0.055791 0.119288
					CHANNELS 3 Zrotation Yrotation Xrotation
					End Site
					{
						OFFSET 0.000000 0.000000 0.000000
					}
				}
			}
		}
	}
	JOINT RightUpLeg
	{
		OFFSET -0.067670 -0.090522 -0.004320
		CHANNELS 3 Zrotation Yrotation Xrotation
		JOINT RightLeg
		{
			OFFSET -0.038290 -0.382569 -0.008850
			CHANNELS 3 Zrotation Yrotation Xrotation
			JOINT RightFoot
			{
				OFFSET 0.015774 -0.398415 -0.042312
				CHANNELS 3 Zrotation Yrotation Xrotation
				JOINT RightToe
				{
					OFFSET -0.025372 -0.048144 0.123348
					CHANNELS 3 Zrotation Yrotation Xrotation
					End Site
					{
						OFFSET 0.000000 0.000000 0.000000
					}
				}
			}
		}
	}
	JOINT Spine
	{
		OFFSET -0.002533 0.108963 -0.026696
		CHANNELS 3 Zrotation Yrotation Xrotation
		JOINT Spine1
		{
			OFFSET 0.005487 0.135180 0.001092
			CHANNELS 3 Zrotation Yrotation Xrotation
			JOINT Spine2
			{
				OFFSET 0.001457 0.052922 0.025425
				CHANNELS 3 Zrotation Yrotation Xrotation
				JOINT Neck
				{
					OFFSET -0.002778 0.213870 -0.042857
					CHANNELS 3 Zrotation Yrotation Xrotation
					JOINT Head
					{
						OFFSET 0.005152 0.064970 0.051349
						CHANNELS 3 Zrotation Yrotation Xrotation
						End Site
						{
							OFFSET 0.000000 0.000000 0.000000
						}
					}
				}
				JOINT LeftShoulder
				{
					OFFSET 0.078845 0.121749 -0.034090
					CHANNELS 3 Zrotation Yrotation Xrotation
					JOINT LeftArm
					{
						OFFSET 0.090977 0.030469 -0.008868
						CHANNELS 3 Zrotation Yrotation Xrotation
						JOINT LeftForeArm
						{
							OFFSET 0.259612 -0.012772 -0.027456
							CHANNELS 3 Zrotation Yrotation Xrotation
							JOINT LeftHand
							{
								OFFSET 0.249234 0.008986 -0.001171
								CHANNELS 3 Zrotation Yrotation Xrotation
								End Site
								{
									OFFSET 0.000000 0.000000 0.000000
								}
							}
						}
					}
				}
				JOINT RightShoulder
				{
					OFFSET -0.081759 0.118833 -0.038615
					CHANNELS 3 Zrotation Yrotation Xrotation
					JOINT RightArm
					{
						OFFSET -0.096012 0.032551 -0.009143
						CHANNELS 3 Zrotation Yrotation Xrotation
						JOINT RightForeArm
						{
							OFFSET -0.253742 -0.013329 -0.021401
							CHANNELS 3 Zrotation Yrotation Xrotation
							JOINT RightHand
							{
								OFFSET -0.255298 0.007772 -0.005559
								CHANNELS 3 Zrotation Yrotation Xrotation
								End Site
								{
									OFFSET 0.000000 0.000000 0.000000
								}
							}
						}
					}
				}
			}
		}
	}
}
MOTION
Frames: 14
Frame Time: 0.050000
0.000000 0.573254 0.000000 0.679347 -4.945497 43.152677 15.531771 -1.885430 39.982191 -33.803347 -10.890215 -66.359120 51.568988 32.236205 93.233825 0.000000 0.000000 0.000000 -18.118348 5.516342 37.006308 27.306184 12.130085 -71.651383 -82.338432 -38.175713 105.736590 0.000000 0.000000 0.000000 3.294807 0.602023 -13.787183 2.289601 4.775187 -81.289338 -0.574097 3.999680 80.840153 5.888346 3.698237 -111.113792 0.000000 0.000000 0.000000 -13.092591 22.952877 -13.168851 -54.413901 4.127031 -18.082362 120.068090 65.551497 109.146736 0.000000 0.000000 0.000000 11.998024 -29.763085 -17.701549 46.966457 -19.119601 -19.199774 -64.836530 -63.830689 48.565785 0.000000 0.000000 0.000000 
0.002324 0.569302 -0.000397 0.226936 -5.661154 45.997227 14.937820 -1.605213 36.254036 -33.512106 -9.898865 -65.622532 48.915059 31.302570 94.024580 0.000000 0.000000 0.000000 -18.230690 5.572944 32.990401 26.482904 11.494636 -69.733644 -83.024599 -36.102468 108.770161 0.000000 0.000000 0.000000 3.414836 0.877527 -16.592833 1.232886 4.700185 -79.806315 0.818314 2.527381 79.892455 2.614976 3.662382 -114.872240 0.000000 0.000000 0.000000 -16.257234 21.490221 -12.289693 -54.418343 -0.063406 -16.986381 132.043353 65.255120 126.840757 0.000000 0.000000 0.000000 7.719432 -28.850969 -16.207814 52.229264 -23.103972 -22.812377 -61.434875 -59.170660 42.980842 0.000000 0.000000 0.000000 
0.003305 0.572633 -0.000149 -1.007216 -6.711241 46.938043 15.149542 -1.356091 36.448750 -33.922026 -9.646426 -66.183634 49.061768 31.812017 92.835757 0.000000 0.000000 0.000000 -19.918240 6.458422 30.990618 28.054176 12.659444 -69.085359 -78.336505 -34.026173 110.198735 0.000000 0.000000 0.000000 4.111270 1.076895 -17.685708 2.736297 5.723963 -79.641186 -0.205720 3.798761 80.999667 11.307384 5.320551 -120.414077 0.000000 0.000000 0.000000 -16.132629 21.294804 -12.080857 -52.969442 -1.758943 -16.723944 143.254705 67.727778 144.790120 0.000000 0.000000 0.000000 12.728174 -28.954577 -17.636505 47.621762 -20.880194 -20.705407 -61.783529 -58.950880 42.173179 0.000000 0.000000 0.000000 
0.002680 0.569722 0.000577 -0.596494 -6.753009 48.084274 14.724724 -1.234059 35.648217 -34.714191 -9.845552 -65.668423 46.893316 31.872026 90.607683 0.000000 0.000000 0.000000 -20.053063 6.605909 31.794643 28.199555 13.247246 -71.532931 -71.948313 -31.794397 112.074582 0.000000 0.000000 0.000000 4.588378 1.183306 -18.628584 0.058299 5.072966 -80.231208 1.320173 1.773307 81.118680 4.245722 4.412733 -118.648906 0.000000 0.000000 0.000000 -15.761184 21.698173 -11.912695 -53.918112 -2.911426 -16.043434 148.504655 69.582351 154.855207 0.000000 0.000000 0.000000 9.684348 -32.387436 -19.771846 48.849573 -23.749625 -21.476167 -68.420732 -52.228588 41.657555 0.000000 0.000000 0.000000 
0.000885 0.570811 0.002024 -0.548687 -5.766224 47.929108 15.361480 -1.698101 36.020028 -33.431600 -10.035166 -67.717028 45.962168 31.229020 91.428803 0.000000 0.000000 0.000000 -18.614965 5.889156 33.397578 27.662457 13.020297 -72.897078 -68.213520 -32.271879 109.687613 0.000000 0.000000 0.000000 4.934590 1.113027 -18.688232 0.176394 4.761475 -80.518763 -0.011358 1.878501 82.633891 14.671687 6.608872 -121.350156 0.000000 0.000000 0.000000 -15.637754 21.848053 -11.966846 -52.765367 -3.788815 -16.141867 154.727705 71.505657 164.843579 0.000000 0.000000 0.000000 11.710836 -31.968674 -20.304427 47.431841 -24.445288 -21.601174 -65.735728 -48.835782 37.085053 0.000000 0.000000 0.000000 
-0.001809 0.569304 0.003650 -1.456995 -6.478469 48.401628 15.001241 -1.336224 36.722083 -32.635445 -9.817310 -70.062985 47.895022 31.102329 93.878312 0.000000 0.000000 0.000000 -18.646138 6.107466 32.916584 28.706532 13.650682 -71.613916 -66.572754 -33.439721 106.358079 0.000000 0.000000 0.000000 5.319037 1.192109 -19.001845 1.218044 5.466654 -80.424414 0.082489 2.430066 82.865848 21.351069 7.422450 -119.387673 0.000000 0.000000 0.000000 -14.786742 22.110088 -12.141393 -51.126171 -3.495060 -15.834035 154.041753 72.802601 162.722632 0.000000 0.000000 0.000000 11.375973 -33.018089 -21.076808 47.129140 -26.422030 -21.886436 -64.657853 -44.158313 32.801854 0.000000 0.000000 0.000000 
-0.004281 0.569621 0.005195 -1.414606 -5.628084 48.322048 15.203149 -1.596900 36.797181 -31.666814 -9.850951 -71.158995 48.599386 31.272857 93.794034 0.000000 0.000000 0.000000 -17.163568 5.300917 33.907726 27.662157 13.223673 -72.771500 -65.145499 -32.775374 107.051339 0.000000 0.000000 0.000000 5.326000 1.136196 -18.971860 0.539310 5.023253 -81.190719 -0.202911 1.331753 83.251216 24.356121 8.074940 -118.924881 0.000000 0.000000 0.000000 -13.259250 22.882871 -12.377817 -49.344956 -1.570219 -16.096411 143.397141 72.181552 147.616305 0.000000 0.000000 0.000000 12.665435 -33.214502 -21.941808 46.083428 -26.831685 -21.612030 -64.921922 -42.405990 31.193762 0.000000 0.000000 0.000000 
-0.005904 0.568491 0.006833 -2.047784 -5.623744 48.905907 14.960841 -1.429256 37.511465 -30.619071 -9.667337 -73.305436 49.167010 31.234865 94.432355 0.000000 0.000000 0.000000 -16.568872 5.082728 34.004217 27.811566 13.549773 -73.091042 -64.541131 -32.660834 107.048870 0.000000 0.000000 0.000000 4.760442 1.271698 -19.949727 1.857768 5.492606 -81.617013 -0.534265 1.528556 83.824174 23.902369 8.043301 -119.483443 0.000000 0.000000 0.000000 -11.155205 23.938760 -12.953340 -48.857676 1.558242 -16.931531 127.211976 68.681505 123.324416 0.000000 0.000000 0.000000 11.912905 -33.500604 -21.993215 47.294943 -27.073946 -22.270791 -66.833540 -40.033763 31.371441 0.000000 0.000000 0.000000 
-0.006280 0.567882 0.008854 -2.515234 -6.092717 49.086064 14.663149 -1.115860 38.459458 -30.668600 -9.786631 -74.612907 49.044675 31.422908 93.776186 0.000000 0.000000 0.000000 -17.170278 5.527509 33.998685 28.081547 13.829811 -73.055111 -62.549223 -32.536237 106.194993 0.000000 0.000000 0.000000 4.774870 1.291403 -19.799742 1.930478 5.910407 -82.763162 0.409106 1.163092 84.994461 20.513537 7.529730 -120.196781 0.000000 0.000000 0.000000 -10.297836 25.329656 -13.951943 -46.867698 4.296579 -17.268181 114.742447 64.812538 103.111152 0.000000 0.000000 0.000000 11.641587 -34.152099 -22.574772 48.286704 -26.382226 -22.536412 -66.681861 -39.433372 31.310238 0.000000 0.000000 0.000000 
-0.005866 0.567913 0.011041 -2.920543 -6.750434 49.309124 13.768912 -0.508492 39.032141 -30.326674 -9.636174 -75.771466 48.658319 31.679192 92.752137 0.000000 0.000000 0.000000 -17.541656 5.894623 33.992700 27.760760 13.927110 -73.190995 -59.584800 -31.921055 105.824959 0.000000 0.000000 0.000000 4.044403 1.387811 -20.063935 3.579860 6.810568 -83.538521 0.767649 1.807708 85.940672 14.655678 6.302716 -121.072455 0.000000 0.000000 0.000000 -9.722234 26.653316 -15.064972 -45.502596 7.265165 -17.726377 103.795549 58.281285 82.361728 0.000000 0.000000 0.000000 11.716300 -34.858766 -23.143781 49.569855 -24.808479 -22.552353 -68.589804 -40.194223 34.330996 0.000000 0.000000 0.000000 
-0.005052 0.568155 0.013193 -3.296057 -7.593635 49.597786 13.075804 0.069912 39.806183 -29.989264 -9.356426 -76.604431 46.921220 31.057169 93.188940 0.000000 0.000000 0.000000 -18.264747 6.456129 33.739770 27.860089 14.014755 -72.501262 -56.346850 -31.150759 105.586873 0.000000 0.000000 0.000000 3.439031 1.493854 -20.405472 4.811304 7.471152 -83.110212 1.249090 1.911202 85.905721 10.992724 5.570531 -120.887651 0.000000 0.000000 0.000000 -8.694975 28.179950 -16.132180 -44.899286 10.297799 -18.027816 95.908349 52.540382 67.276622 0.000000 0.000000 0.000000 10.399479 -35.791062 -23.541158 51.038175 -23.574447 -22.455646 -69.961419 -40.248438 36.018902 0.000000 0.000000 0.000000 
-0.004401 0.568946 0.014794 -3.262720 -7.803457 49.607611 12.657431 0.291318 39.788302 -29.814573 -9.279792 -76.854650 46.367330 30.871967 93.294724 0.000000 0.000000 0.000000 -17.986368 6.380745 33.878034 27.698291 13.809451 -71.712559 -54.171260 -30.938661 104.538026 0.000000 0.000000 0.000000 3.846897 1.571737 -21.001130 5.180124 7.499614 -81.901630 1.545303 2.705298 85.550284 10.229315 5.183358 -120.609738 0.000000 0.000000 0.000000 -9.022317 28.204733 -16.335819 -44.479216 11.560289 -18.278445 95.620001 50.534089 64.329225 0.000000 0.000000 0.000000 10.178939 -36.044295 -23.463836 51.230381 -22.746973 -22.202584 -71.177671 -42.012343 38.769199 0.000000 0.000000 0.000000 
-0.003894 0.569716 0.015633 -2.967590 -8.019049 49.666017 12.145183 0.521718 39.669729 -29.685509 -9.241244 -76.895577 46.081179 30.682708 93.650337 0.000000 0.000000 0.000000 -17.899081 6.320454 33.562975 27.600982 13.635634 -71.128728 -55.807287 -31.204964 104.874062 0.000000 0.000000 0.000000 3.590292 1.558841 -20.918597 5.458794 7.325953 -80.321400 1.137125 3.326810 83.483464 8.483689 4.866398 -119.430281 0.000000 0.000000 0.000000 -8.395287 28.697396 -16.477308 -45.360444 12.370596 -18.166532 95.027052 49.774727 62.394303 0.000000 0.000000 0.000000 9.287087 -36.242315 -22.986599 50.053833 -22.397340 -21.117593 -73.315043 -42.736526 40.112761 0.000000 0.000000 0.000000 
-0.003472 0.569761 0.015925 -2.562570 -7.624362 49.481285 12.082608 0.436088 39.802701 -29.762382 -9.604786 -77.135214 46.312717 30.391298 94.745237 0.000000 0.000000 0.000000 -17.515274 5.990330 33.564363 27.252259 13.092066 -70.433623 -56.557055 -31.122740 105.550526 0.000000 0.000000 0.000000 3.795788 1.491804 -20.760201 5.115094 6.816889 -79.043668 0.938661 3.543388 82.096512 8.035883 4.791504 -118.680283 0.000000 0.000000 0.000000 -8.612609 28.659016 -16.405845 -45.984862 11.864815 -17.958669 96.413307 51.315895 65.179952 0.000000 0.000000 0.000000 8.154567 -36.626217 -22.678709 48.105221 -23.381768 -20.295447 -73.820888 -42.530762 39.302292 0.000000 0.000000 0.000000 
